<?xml version="1.0" encoding="utf-8"?>
<!-- Generator: Adobe Illustrator 16.0.0, SVG Export Plug-In . SVG Version: 6.00 Build 0)  -->
<!DOCTYPE svg PUBLIC "-//W3C//DTD SVG 1.1//EN" "http://www.w3.org/Graphics/SVG/1.1/DTD/svg11.dtd">
<svg version="1.1" id="Layer_1" xmlns="http://www.w3.org/2000/svg" xmlns:xlink="http://www.w3.org/1999/xlink" x="0px" y="0px"
	 width="318.478px" height="318.67px" viewBox="0 0 318.478 318.67" enable-background="new 0 0 318.478 318.67"
	 xml:space="preserve">
<path fill="#D1B526" d="M162.678,0.02C73.735-1.339,2.62,68.035,0.072,154.532c-2.65,89.949,68.147,162.378,155.356,164.104
	c89.907,1.779,161.746-68.468,163.033-158.603C319.685,74.351,248.507,1.33,162.678,0.02z M183.368,176.92
	c5.681,7.283,5.633,15.558,4.592,24.202c-0.538-0.177-0.795-0.185-0.841-0.287c-9.771-21.851-28.207-29.123-50.449-30.108
	c-7.657-0.339-15.28-1.069-22.558-3.759c-1.472-0.543-2.907-1.182-4.213-2.785c5.136-0.767,10.271-1.536,15.407-2.299
	c13.907-2.063,25.005-8.604,32.827-20.459c3.938-5.969,7.926-11.906,12.018-17.77c2.279-3.266,5.438-5.62,9.765-8.877
	c-2.392,6.646-4.275,11.857-5.521,17.296C170.651,148.431,172.882,163.474,183.368,176.92z M206.055,208.015
	c-19.301,21.551-58.596,26.627-84.582,7.607C150.302,213.541,177.425,205.833,206.055,208.015z M129.127,92.646
	c-33.624,16.062-49.734,50.406-40.368,86.338c0.733,2.814,0.484,4.798-1.507,7.157c-5.847,6.927-12.837,12.546-19.609,18.456
	c-3.354,2.927-4.173,1.042-5.367-1.772c-13.831-32.61-12.785-64.738,4.594-95.583C83.965,76.9,110.53,59.548,144.881,54.068
	c0.489-0.078,0.995-0.119,1.488-0.092c0.313,0.018,0.617,0.194,1.386,0.457c-4.916,11.814-9.831,23.59-14.706,35.382
	C132.303,91.619,130.581,91.951,129.127,92.646z M129.784,98.269c-12.369,26.807-20.241,54.241-35.726,79.786
	C84.053,148.262,100.843,110.817,129.784,98.269z M73.2,206.149c11.967-9.801,22.155-21.099,30.084-34.386
	c1.236-2.071,2.128-3.444,4.976-2.07c9.646,4.656,20.171,5.136,30.607,6.048c12.563,1.098,24.841,3.1,34.202,12.827
	c3.14,3.263,5.644,6.964,7.891,10.876c1.409,2.453,1.44,3.866-1.948,4.302c-31.133,3.999-62.255,8.077-93.377,12.162
	c-8.888,1.167-17.761,2.444-26.646,3.631c-1.401,0.188-2.832,0.163-5.61,0.307C60.81,214.886,67.311,210.973,73.2,206.149z
	 M74.903,222.957c0.508-1.78,2.549-1.094,3.927-1.281c10.547-1.435,21.117-2.699,31.648-4.239c2.347-0.343,4.055,0.079,5.989,1.397
	c30.718,20.931,67.489,17.998,94.176-7.491c1.691-1.615,3.154-2.321,5.673-1.897c9.596,1.615,18.583,5.077,27.645,8.385
	c2.953,1.077,2.35,2.389,0.895,4.315c-16.744,22.19-38.599,36.284-65.951,41.618c-6.535,1.274-13.149,2.057-19.874,1.963
	c-33.087-0.883-60.577-13.55-81.944-39.066C76.15,225.544,74.469,224.482,74.903,222.957z M196.379,202.725
	c-2.545-0.03-3.605-0.736-3.299-3.47c1.227-10.908-1.823-20.308-8.31-29.403c-11.557-16.205-7.624-33.298-1.017-51.391
	c26.705,34.689,52.683,68.433,78.66,102.177C241.408,209.643,219.786,203.006,196.379,202.725z M175.098,94.117
	c24.21,2.342,56.184,32.707,51.438,72.508C209.5,141.404,188.235,120.98,175.098,94.117z M255.56,203.653
	c-8.156-10.59-15.758-20.471-23.378-30.338c-1.058-1.37-0.604-2.827-0.47-4.311c3.612-39.634-17.779-70.582-56.036-80.924
	c-2.177-0.588-3.352-1.441-4.138-3.613c-3.315-9.154-4.761-18.694-6.282-28.234c-0.504-3.16,1.575-2.685,3.385-2.554
	c12.441,0.902,24.23,4.284,35.529,9.471c50.265,23.074,74.403,83.525,53.882,134.935
	C257.443,199.608,256.714,201.084,255.56,203.653z M176.591,107.272c1.101,1.968,1.009,3.119-0.917,4.494
	c-7.466,5.335-12.875,12.505-17.16,20.483c-10.296,19.168-27.016,26.402-48.557,26.29c16.345-39.538,32.559-78.757,48.771-117.976
	C159.564,64.465,165.049,86.65,176.591,107.272z M22.399,217.483C-15.691,127.236,41.719,25.955,138.87,12.069
	c7.566-1.081,15.198-1.75,23.415-1.126c-1.612,2.738-2.533,5.107-1.146,7.556c0.905,1.597,0.275,2.854-0.296,4.236
	c-3.055,7.388-6.188,14.743-9.101,22.187c-1.034,2.644-2.508,3.697-5.423,4.062c-48.132,6.014-85.462,39.938-95.784,87.225
	c-5.209,23.861-2.604,47.058,7.6,69.265c1.557,3.39,1.504,5.116-2.004,6.977c-5.295,2.81-10.458,5.859-16.008,8.164
	c-2.603,1.08-5.117,2.413-7.972,0.322c-0.765-0.561-2.62-0.652-3.321-0.111C24.092,224.474,23.58,220.282,22.399,217.483z
	 M277.037,249.897c-30.159,38.008-69.603,57.179-119.891,58.429c-52.3-1.975-94.568-25.006-124.215-70.625
	c-1.146-1.766-3.498-5.024-2.797-5.376c2.929-1.47,4.549-4.904,7.948-5.359c9.072-1.216,18.188-2.13,27.229-3.53
	c3.175-0.492,4.031,1.556,5.412,3.324c17.871,22.884,40.888,37.704,69.653,42.106c44.368,6.789,80.521-8.146,108.118-43.472
	c2.499-3.199,4.198-3.899,7.49-1.598c4.359,3.048,8.992,5.7,13.408,8.67c2.708,1.82,5.651,3.534,4.67,7.81
	c-0.327,1.425,0.892,3.172,2.289,3.591C281.602,245.439,278.746,247.743,277.037,249.897z M289.362,231.048
	c-4.122,7.579-4.88,8.227-10.712,2.055c-6.944-7.349-12.659-15.869-18.793-23.967c-1.399-1.847,0.492-3.471,1.139-5.047
	c14.18-34.61,12.865-68.586-6.094-100.85c-19.039-32.399-47.994-50.526-85.507-54.448c-3.516-0.367-5.031-1.11-4.78-4.919
	c0.351-5.306-0.003-10.644,0.853-15.946c0.533-3.299,0.815-6.323,4.075-8.555c2.754-1.885,1.239-5.092,0.491-8.136
	c71.265,5.812,127.941,59.68,136.571,129.557C310.54,172.654,304.728,202.799,289.362,231.048z"/>
<path fill="#2FC700" d="M58.988,219.539c8.886-1.187,17.759-2.464,26.646-3.631c31.122-4.085,62.244-8.163,93.377-12.162
	c3.389-0.436,3.357-1.849,1.948-4.302c-2.247-3.912-4.751-7.613-7.891-10.876c-9.361-9.728-21.639-11.729-34.202-12.827
	c-10.437-0.912-20.961-1.392-30.607-6.048c-2.848-1.374-3.739-0.001-4.976,2.07c-7.929,13.287-18.117,24.585-30.084,34.386
	c-5.89,4.823-12.391,8.736-19.822,13.696C56.156,219.702,57.587,219.727,58.988,219.539z"/>
<path fill="#DB0D00" d="M109.957,158.54c21.541,0.112,38.261-7.122,48.557-26.29c4.285-7.979,9.694-15.148,17.16-20.483
	c1.926-1.375,2.018-2.526,0.917-4.494c-11.542-20.622-17.026-42.808-17.862-66.708C142.516,79.783,126.302,119.002,109.957,158.54z"
	/>
<path fill="#0000DB" d="M183.754,118.461c-6.607,18.093-10.54,35.186,1.017,51.391c6.486,9.096,9.536,18.495,8.31,29.403
	c-0.307,2.733,0.754,3.439,3.299,3.47c23.407,0.281,45.029,6.918,66.035,17.913C236.437,186.894,210.459,153.15,183.754,118.461z"/>
<path fill="#262626" d="M115.619,223.771c-0.977,2.757-2.086,4.688-4.733,4.036c-0.068,0.089-0.142,0.168-0.213,0.251
	c-0.699,1.053,1.318,2.003,0.547,2.561c-1.433,1.038-2.622-0.498-3.875-1.084l0,0c0,0,0,0-0.001,0
	c-0.017,2.023,1.395,3.364,2.356,4.92c0.09,0.539,0.179,1.077,0.269,1.616C117.068,231.837,117.479,231.058,115.619,223.771z"/>
<path fill="#373737" d="M125.052,244.112c0.561,2.896-0.6,4.783-3.362,5.729c1.879,0.693,3.801,1.087,5.815,0.817
	c1.908-0.642,1.091-2.836,2.231-3.915c1.295-1.768-1.152-2.994-0.672-4.644c-0.03-0.859,0.491-1.262,1.223-1.489
	c0-0.008,0.001-0.015,0.001-0.022c-0.165-0.25-0.323-0.504-0.474-0.764c-1-0.279-2.001-0.56-3.002-0.84
	c-0.332,0.036-0.664,0.071-0.996,0.107c0.003,0.583,0.007,1.167,0.01,1.75C127.62,242.42,126.122,243.215,125.052,244.112z"/>
<path fill="#282828" d="M174.416,252.109c0.849,0.613,1.526-0.213,2.295-0.273c0.359-0.016,0.719-0.031,1.079-0.047
	c2.064-3.672,0.446-7.398,0.941-11.087c-1.995-0.084-1.628,1.399-2.153,1.595C170.707,244.48,177.332,249.348,174.416,252.109z"/>
<path fill="#1B1B1B" d="M194.035,248.138c0.829,1.181,1.318-0.561,1.887-1.146c-0.025-0.742-0.052-1.484-0.077-2.227
	c0.348-0.634,0.696-1.269,1.044-1.902c-0.862-0.973-2.541-1.742-0.835-3.354c-0.355-1.162-0.136-2.902-2.073-2.675
	c-1.732,0.204-0.979,1.745-1.128,2.747c-0.256,1.717,0.485,3.458-0.72,5.19C190.883,246.569,193.332,247.137,194.035,248.138z"/>
<path fill="#595959" d="M171.602,254.107c0.52-3.549,0.714-7.145,1.085-11.396c-3.103,2.103-3.41,4.612-3.859,7.051
	c0.329,1.382,0.658,2.763,0.988,4.145C170.34,254.857,171.479,254.938,171.602,254.107z"/>
<path fill="#10100F" d="M209.897,226.6c0.299-1.204,1.319-2.368,0.199-3.647c-1.255,1.731-4.385,1.747-4.304,4.701
	c0.01,0.624,0.019,1.248,0.028,1.872C207.18,228.551,208.539,227.575,209.897,226.6z"/>
<path fill="#242424" d="M209.897,226.6c-0.017,0.624,0.022,1.257-0.06,1.872c-0.253,1.891-0.392,3.515,1.932,1.189
	c0.104-0.644-1.596-0.893-0.39-1.777c0.771-1.411,0.325-3.155,1.398-4.552c0.53-0.691,0.572-2.136-0.522-2.436
	c-1.416-0.389-2.508,0.244-2.159,2.055c0,0,0,0,0,0.001c0.001-0.001,0.001-0.001,0.001-0.001
	C212.596,224.308,211.258,225.454,209.897,226.6z"/>
<path fill="#242424" d="M209.897,226.6c1.36-1.146,2.698-2.292,0.2-3.648c0,0,0,0-0.001,0.001
	C211.217,224.231,210.196,225.396,209.897,226.6z"/>
<path fill="#313131" d="M213.583,240.137c-0.302,1.241,1.01,1.398,1.916,1.501c1.328,0.15,2.058-0.549,2.363-1.854
	c0.427-1.825-1.001-2.061-2.515-2.746C214.785,237.979,213.864,238.98,213.583,240.137z"/>
<path fill="#424242" d="M150.074,256.573c2.202,0.911,2.664-0.884,2.696-2.676c-2.225,1.127-2.729-1.307-4.086-1.975
	C146.676,254.204,148.195,255.795,150.074,256.573z"/>
<path fill="#252525" d="M103.987,242.395c4.183-1.438,5.241-3.743,5.981-6.323c-0.597-0.455-0.686-0.993-0.269-1.616
	C107.252,236.244,106.726,239.243,103.987,242.395z"/>
<path fill="#252525" d="M109.969,236.071c-0.09-0.539-0.179-1.077-0.269-1.616C109.283,235.078,109.372,235.616,109.969,236.071z"/>
<path d="M150.298,248.723c2.328,0.048,1.213-1.731,1.5-2.756c-0.114-0.89,0.403-2.359-1.022-2.244
	c-2.247,0.181-1.042,2.412-1.67,3.617C148.575,248.357,149.358,248.703,150.298,248.723z"/>
<path fill="#262626" d="M146.503,242.275c-2.335,1.172-2.688,3.342-3.392,5.316C144.463,246.119,147.606,245.605,146.503,242.275z"
	/>
<path fill="#5F5F5F" d="M144.757,258.73c1.564-1.742,1.282-3.08,0.046-5.091C143.559,255.735,143.436,257.093,144.757,258.73z"/>
<path fill="#4A4A4A" d="M212.446,235.486c2.37-0.229,3.657-0.932,2.96-3.288C214.34,233.057,212.637,233.239,212.446,235.486z"/>
<path fill="#292929" d="M122.579,243.376c0.451-0.558,1.004-0.902,1.749-0.863c0.001,0.001,0.002,0.001,0.004,0.002
	c0.331-0.369,0.661-0.738,0.991-1.108c-0.027-0.205-0.074-0.415-0.173-0.641c-0.001-0.65,0.212-1.211,0.667-1.673
	c-2.402,0.079-2.968,2.089-3.9,3.712c0.197,0.219,0.394,0.437,0.591,0.655C122.532,243.432,122.555,243.403,122.579,243.376z"/>
<path fill="#292929" d="M125.323,241.406c0.168-0.188,0.336-0.375,0.504-0.563c-0.003-0.583-0.007-1.167-0.01-1.75
	c-0.455,0.462-0.668,1.022-0.667,1.673C125.249,240.991,125.296,241.201,125.323,241.406z"/>
<path fill="#292929" d="M124.328,242.513c-0.745-0.039-1.298,0.306-1.749,0.863c-0.024,0.027-0.047,0.056-0.071,0.084
	c0.12,0.133,0.241,0.267,0.361,0.399c0.387-0.335,0.773-0.671,1.16-1.006c0.101-0.113,0.202-0.226,0.303-0.339
	C124.331,242.514,124.33,242.514,124.328,242.513z"/>
<path fill="#A6A6A6" d="M132.985,239.776C132.985,239.776,132.985,239.776,132.985,239.776
	C132.984,239.776,132.984,239.776,132.985,239.776c-0.34,0.663-0.679,1.327-1.019,1.99c-0.179,0.139-0.357,0.277-0.536,0.417
	c1.348,0.752,0.463,2.386,1.3,3.344c0.315-1.918,0.632-3.835,0.948-5.752l-0.347,0.003L132.985,239.776z"/>
<path fill="#A6A6A6" d="M131.431,242.184c-0.213,0.165-0.425,0.33-0.638,0.495c0.646,0.949,1.291,1.898,1.938,2.849
	C131.894,244.569,132.778,242.936,131.431,242.184z"/>
<path fill="#747474" d="M128.833,251.294c-0.715,0.925-2.942-0.179-2.602,0.941c0.43,1.412,2.185,2.272,3.729,0.559
	C129.17,252.607,128.653,252.213,128.833,251.294z"/>
<path fill="#747474" d="M129.961,252.794c-0.376-0.5-0.752-1-1.128-1.5C128.653,252.213,129.17,252.607,129.961,252.794z"/>
<path fill="#272727" d="M195.922,246.992c0.961-0.501,3.005,1.106,2.938-1.197c-0.067-2.322-2.01-0.623-3.016-1.029
	C196.437,245.488,196.434,246.231,195.922,246.992z"/>
<path fill="#272727" d="M195.845,244.766c0.025,0.742,0.052,1.484,0.077,2.227C196.434,246.231,196.437,245.488,195.845,244.766z"/>
<path fill="#010101" d="M175.244,256.993c0.615-1.167,0.29-2.181-1.164-3.579c-0.338,1.513-0.916,2.622-0.036,3.69
	C174.368,257.498,174.952,257.55,175.244,256.993z"/>
<path fill="#3D3D3D" d="M206.963,237.548c2.106-0.937,2.214-2.229,1.456-3.914C206.308,234.161,206.535,235.538,206.963,237.548z"/>
<path fill="#555555" d="M169.815,253.907c-1.448-1.114-2.051-2.432-0.988-4.145C166.711,251.728,166.715,253.187,169.815,253.907z"
	/>
<path fill="#555555" d="M169.815,253.907c-0.33-1.382-0.659-2.763-0.988-4.145C167.765,251.476,168.367,252.793,169.815,253.907z"/>
<path fill="#535353" d="M153.337,252.881c0.823-0.229,1.511-0.562,1.008-1.603c-0.674-1.396-1.929-1.418-3.225-1.314
	C152.206,250.673,154.532,250.438,153.337,252.881z"/>
<path fill="#535353" d="M153.337,252.881c1.195-2.442-1.131-2.208-2.217-2.917C152.159,250.708,153.492,251.229,153.337,252.881z"/>
<path fill="#292929" d="M176.711,251.836c0.786,1.218-1.28,3.397,1.653,4.141c0.581-1.559-0.16-2.862-0.574-4.188
	C177.45,252.262,177.091,252.301,176.711,251.836z"/>
<path fill="#292929" d="M177.79,251.789c-0.36,0.016-0.72,0.031-1.079,0.047C177.091,252.301,177.45,252.262,177.79,251.789z"/>
<path fill="#161616" d="M122.392,243.598c-0.205-0.223-0.31-0.534-0.475-0.793c-0.736,0.988-1.473,1.976-2.21,2.964
	C120.98,245.502,121.64,244.496,122.392,243.598z"/>
<path fill="#161616" d="M122.869,243.859c-0.222-0.031-0.361-0.136-0.478-0.262c-0.751,0.898-1.411,1.904-2.685,2.171
	C121.996,247.176,122.016,244.827,122.869,243.859z"/>
<path fill="#161616" d="M122.508,243.46c-0.197-0.219-0.394-0.437-0.591-0.655c0.165,0.259,0.27,0.57,0.475,0.793
	C122.43,243.552,122.469,243.505,122.508,243.46z"/>
<path fill="#161616" d="M122.392,243.598c0.116,0.126,0.256,0.23,0.478,0.262c-0.12-0.133-0.241-0.267-0.361-0.399
	C122.469,243.505,122.43,243.552,122.392,243.598z"/>
<path fill="#030303" d="M205.821,229.525c-0.593-0.615-0.571-1.239-0.028-1.872c-1.157,0.093-3.094-0.621-2.929,1.269
	C203.022,230.745,204.655,230.052,205.821,229.525z"/>
<path fill="#030303" d="M205.821,229.525c-0.01-0.624-0.019-1.248-0.028-1.872C205.25,228.286,205.229,228.91,205.821,229.525z"/>
<path fill="#5C5C5C" d="M211.77,229.566c1.018-0.765,2.69,0.223,3.691-1.777c-1.583,0-2.832,0-4.081,0
	C211.788,228.789,212.149,228.862,211.77,229.566z"/>
<path fill="#5C5C5C" d="M211.77,229.661c0.38-0.704,0.019-1.246-0.39-1.777C210.174,228.769,211.873,229.018,211.77,229.661z"/>
<path d="M130.964,237.66c0.015,0.048,0.02,0.091,0.031,0.137c0.191-0.123,0.397-0.215,0.628-0.25
	c-0.312-0.534-0.625-1.068-0.938-1.603c-0.957,0.278-1.914,0.558-2.871,0.836C128.736,237.531,130.13,236.594,130.964,237.66z"/>
<path d="M130.848,237.887c0.046-0.037,0.099-0.059,0.147-0.09c-0.012-0.046-0.016-0.089-0.031-0.137
	c-0.834-1.066-2.228-0.129-3.149-0.88C128.35,238.454,129.876,237.409,130.848,237.887z"/>
<path fill="#9F9F9F" d="M132.022,237.735c0.627,0.393,0.774,1.078,0.909,1.771c0.277-0.052,0.526,0.04,0.748,0.269
	c0.356-2.335-0.407-3.795-2.993-3.831C131.491,236.284,132.263,236.649,132.022,237.735z"/>
<path fill="#9F9F9F" d="M132.931,239.507c0.018,0.09,0.035,0.18,0.053,0.269c0,0.001,0,0.001,0.001,0.001l0.347,0.002l0.347-0.003
	C133.457,239.547,133.208,239.455,132.931,239.507z"/>
<path fill="#9F9F9F" d="M132.022,237.735c0.24-1.086-0.532-1.451-1.337-1.791c0.312,0.534,0.625,1.068,0.938,1.603
	C131.776,237.598,131.906,237.663,132.022,237.735z"/>
<path fill="#515151" d="M196.889,242.863c1.233-1.494,2.062-2.889-0.835-3.354C195.201,240.909,197.268,241.582,196.889,242.863z"/>
<path fill="#515151" d="M196.889,242.863c0.379-1.281-1.688-1.954-0.835-3.354C194.348,241.121,196.026,241.891,196.889,242.863z"/>
<path fill="#272727" d="M247.333,151.072c-0.474-4.717,4.761-0.684,5.252-4.116c-5.103-0.479-9.894,0.564-14.716,1.582
	c1.753,0.591,3.477,0.601,5.175,0.395c1.977-0.24,2.022,1.061,2.27,2.408c0.334,1.82-0.511,2.367-2.149,2.365
	c-1.485-0.002-2.979,0.035-4.454,0.197c-0.819,0.091-0.992,0.79-0.616,1.459c0.42,0.749,1.126,0.225,1.73,0.153
	c1.669-1.467,3.575-0.727,5.436-0.727c-0.001,0-0.001,0-0.002,0c0.001,0,0.002,0,0.003,0c2.559,0,5.338,0.775,7.846-0.916
	C251.665,151.413,247.782,155.54,247.333,151.072z"/>
<path fill="#151515" d="M194.483,84.677c3.391-4.815-1.007-9.245-0.91-13.973c0.04-1.972-1.647-0.624-1.809,0.918
	c0.31,0.883,0.619,1.766,0.929,2.649c0.081,3.762,0.162,7.524,0.244,11.288C193.327,85.044,193.737,84.565,194.483,84.677z"/>
<path fill="#151515" d="M194.483,84.677c-0.746-0.111-1.156,0.368-1.546,0.883c0,0,0,0,0,0.001
	C193.452,85.266,193.968,84.972,194.483,84.677z"/>
<path fill="#1C1C1C" d="M238.474,157.789c0.001,0,0.002,0,0.003,1c4.798,0,9.596,0,14.394,0c-0.001-1-0.001-1-0.002-1
	C248.069,157.789,243.271,157.789,238.474,157.789z"/>
<path fill="#1C1C1C" d="M240.589,174.687c-1.251,0.458-2.904-0.89-4.51,1.712c5.483-0.271,10.3-0.511,15.383-0.764
	c-0.642-1.654-1.545-1.864-2.564-1.877c-0.742,0.318-1.485,0.637-2.228,0.955c-1.341-0.411-3.673,1.272-3.762-1.781
	c-0.027-0.675-0.056-1.351-0.084-2.025c-0.315-0.098-0.631-0.196-0.946-0.294C241.679,172.043,242.436,173.777,240.589,174.687z"/>
<path fill="#4B4A4B" d="M208.67,93.018c-3.479-1.271-0.483-3.541-0.899-5.259c-0.183,0.022-0.365,0.044-0.548,0.066
	c-1.039,1.035-2.23,1.96-3.081,3.132c-1.297,1.784,0.732,2.144,1.56,2.917c0.815,0.761,1.782,1.682,3.015,0.786
	C209.313,94.225,209.34,93.262,208.67,93.018z"/>
<path fill="#333333" d="M247.774,160.87c-0.562-0.213-1.299,0.035-1.956,0.073c-0.014,0.303-0.004,0.605,0.028,0.907
	c1.662,0.327,2.046,1.596,2.267,2.986c1.904-0.368,4.767-0.618,4.594-2.592C252.487,159.742,249.456,161.507,247.774,160.87z"/>
<path fill="#333333" d="M248.133,164.951c-0.006-0.039-0.014-0.076-0.02-0.114c-0.026,0.005-0.055,0.01-0.08,0.015L248.133,164.951z
	"/>
<path fill="#282828" d="M236.212,104.38l0.009-0.051c-0.009,0.013-0.017,0.021-0.025,0.034c0.004,0.005,0.007,0.01,0.01,0.015
	c0.006-0.02,0.014-0.045,0.01-0.038C236.216,104.354,236.214,104.367,236.212,104.38z"/>
<path fill="#282828" d="M230.907,98.896c1.573,1.516-2.061,4.604,0.468,4.285c2.202-0.277,2.688,4.35,4.82,1.183
	C234.769,102.308,233.817,99.806,230.907,98.896z"/>
<path fill="#252525" d="M248.005,164.863c-2.021-1.453-3.665-0.321-5.301,0.866c1.346,0.871,0.947,1.688-0.186,2.355
	c0.188,0.176,0.332,0.704,0.434,0.704c2.879,0,5.759,0,8.638,0c0.011,0,0.021-0.523,0.031-0.741
	c-2.106-0.247-4.213-0.538-7.01-0.866C246.21,166.113,247.113,165.467,248.005,164.863z"/>
<path fill="#252525" d="M248.028,164.848c-0.008,0.005-0.016,0.011-0.023,0.016c0.041,0.029,0.082,0.054,0.123,0.085
	C248.133,164.951,248.022,164.844,248.028,164.848z"/>
<path fill="#252525" d="M240.388,118.338c3.879,1.535,4.083,2.276,1.477,5.368c2.749,0.259,3.62-1.443,3.068-3.617
	c-0.864-3.402-3.694-2.349-6.053-2.144c0.246,0.208,0.492,0.416,0.739,0.625C239.875,118.493,240.131,118.414,240.388,118.338z"/>
<path fill="#252525" d="M240.388,118.338c-0.257,0.076-0.513,0.155-0.769,0.232c0.132,0.111,0.264,0.223,0.396,0.334
	c3.561,0.466,3.285,2.41,1.85,4.802C244.471,120.614,244.267,119.873,240.388,118.338z"/>
<path fill="#313131" d="M226.382,94.62c0.867-1.706,0.133-3.325-1.362-3.555c-2.36-0.361-3.977,1.13-4.507,3.56
	c0.32,0.037,0.641,0.074,0.961,0.111C222.878,91.679,224.476,91.14,226.382,94.62z"/>
<path fill="#313131" d="M221.474,94.736c0.08,0.009,0.159,0.018,0.239,0.027c1.473-2.756,3.084-1.028,4.669-0.144
	C224.476,91.14,222.878,91.679,221.474,94.736z"/>
<path fill="#333333" d="M215.292,85.278c0.381-0.482,1.163-1.06,1.075-1.431c-0.464-1.952-2.4-2.419-3.99-3.696
	c-0.539,0.89-1.609,2.042-1.39,2.397C211.925,84.066,214.479,83.306,215.292,85.278z"/>
<path fill="#282828" d="M247.028,131.588c4.163-0.804,1.206-3.463,0.674-4.458c-1.201-2.248-2.486,0.018-4.013,0.694
	C245.866,128.36,246.782,129.709,247.028,131.588z"/>
<path fill="#2B2B2B" d="M234.732,120.511c0.059-0.033,0.12-0.058,0.179-0.09c-0.014-0.127-0.027-0.254-0.041-0.382
	c-3.026,1.569-5.859,3.205-2.421,7.008c0.357-0.329,0.714-0.657,1.07-0.985C231.326,123.734,233.207,122.156,234.732,120.511z"/>
<path fill="#2B2B2B" d="M234.978,121.049c-0.022-0.209-0.045-0.419-0.066-0.628c-0.059,0.032-0.12,0.057-0.179,0.09
	c-1.525,1.645-3.406,3.224-1.213,5.551c0.113-0.104,0.227-0.208,0.34-0.312C232.189,123.697,234.391,122.564,234.978,121.049z"/>
<path fill="#161616" d="M215.594,90.749c1.477,0.169,1.467-5.648,4.055-1.006c0.381,0.014,0.763,0.027,1.144,0.041
	c1.252-1.938,0.046-3.258-1.383-4.097c-2.115-1.242-1.984,1.491-3.11,2.137c-0.997,0.571-1.483,1.723-1.516,2.954
	C215.05,90.664,215.32,90.654,215.594,90.749z"/>
<path fill="#161616" d="M230.74,113.532c2.203-0.34,4.125-0.636,6.048-0.933c-0.345-0.285-0.689-0.57-1.034-0.856
	c-1.249-0.289-0.956-1.299-1.006-2.148c-0.195-0.262-0.409-0.507-0.642-0.735C232.74,110.156,231.297,111.4,230.74,113.532z"/>
<path fill="#2F2F30" d="M214.772,97.844c-1.474,4.375-0.433,5.303,5.061,4.56c-0.364-0.594-0.729-1.188-1.093-1.78
	C215.684,102.205,216.667,97.943,214.772,97.844z"/>
<path fill="#2F2F30" d="M214.71,97.835c0,0,0-0.001,0.001-0.001L214.71,97.835c0.022,0,0.04,0.008,0.062,0.009
	c0.01-0.03,0.017-0.055,0.027-0.085C214.799,97.76,214.709,97.835,214.71,97.835z"/>
<path fill="#111111" d="M220.537,100.748c-0.226-1.982,0.303-3.859,0.812-5.74c0.011-0.025,0.021-0.046,0.032-0.07
	c-0.312,0.097-0.602-0.013-0.868-0.312c-0.591,2-1.182,3.999-1.772,5.999c0.876,0.279,1.289,0.843,1.093,1.78
	c0.324,0.03,0.648,0.061,0.973,0.091c0.044-0.535,0.088-1.069,0.131-1.604C220.806,100.847,220.678,100.809,220.537,100.748z"/>
<path fill="#111111" d="M221.713,94.764c-0.113,0.084-0.224,0.14-0.332,0.174c-0.011,0.024-0.021,0.045-0.032,0.07
	c-0.509,1.881-1.037,3.758-0.812,5.74c0.141,0.061,0.269,0.099,0.399,0.143c0.011-0.131,0.021-0.262,0.032-0.393
	C221.508,98.625,222.227,96.774,221.713,94.764z"/>
<path fill="#111111" d="M221.381,94.938c0.031-0.07,0.062-0.134,0.093-0.201c-0.32-0.037-0.641-0.075-0.961-0.111
	C220.779,94.924,221.068,95.034,221.381,94.938z"/>
<path fill="#111111" d="M221.474,94.736c-0.03,0.067-0.062,0.131-0.093,0.201c0.108-0.034,0.219-0.09,0.332-0.174
	C221.633,94.754,221.554,94.745,221.474,94.736z"/>
<path fill="#111111" d="M218.74,100.624c0.364,0.593,0.729,1.187,1.093,1.78C220.029,101.467,219.616,100.903,218.74,100.624z"/>
<path fill="#232323" d="M182.295,79.475c-0.834-0.313-1.469-1.479-2.25-0.106c-0.166,0.291,0.081,0.95,0.325,1.313
	c0.583,0.869,1.463,1.385,2.511,1.063c1.896-0.582,2.9-1.979,3.185-3.917c-0.377-0.005-0.754-0.01-1.132-0.015
	C184.189,78.61,183.641,79.98,182.295,79.475z"/>
<path fill="#262626" d="M227.785,97.663c-0.214-0.191-0.427-0.382-0.64-0.573c-0.073,0.065-0.146,0.129-0.223,0.193
	c-2.055,0.953-2.702,4.502-5.711,3.7c0.189,0.531,0.092,1.038-0.406,1.512C224.335,102.622,225.415,99.211,227.785,97.663z"/>
<path fill="#262626" d="M220.969,100.498c0.106,0.164,0.187,0.326,0.243,0.485c3.009,0.802,3.656-2.747,5.711-3.7
	c0.076-0.063,0.149-0.128,0.223-0.193c-0.144-0.128-0.287-0.257-0.431-0.385C224.627,97.707,223.73,100.515,220.969,100.498z"/>
<path fill="#262626" d="M221.212,100.983c-0.088-0.023-0.184-0.062-0.275-0.093c-0.043,0.535-0.087,1.069-0.131,1.604
	C221.304,102.021,221.401,101.514,221.212,100.983z"/>
<path fill="#262626" d="M220.937,100.891c0.092,0.031,0.188,0.069,0.275,0.093c-0.057-0.16-0.137-0.321-0.243-0.485
	C220.958,100.629,220.947,100.76,220.937,100.891z"/>
<path fill="#353535" d="M216.782,91.641c-0.249-0.187-0.498-0.374-0.747-0.561c-0.007,0.002-0.014,0.006-0.021,0.009
	c-0.453,0.078-0.865-0.027-1.231-0.311c-0.894,2.308-1.5,4.616-0.016,6.918c0.687-1.648,1.373-3.296,2.058-4.946
	C216.811,92.381,216.797,92.011,216.782,91.641z"/>
<path fill="#353535" d="M214.8,97.759L214.8,97.759c-0.013-0.021-0.02-0.042-0.032-0.062c-0.02,0.046-0.038,0.091-0.057,0.137
	L214.8,97.759C214.8,97.758,214.8,97.759,214.8,97.759z"/>
<path fill="#353535" d="M216.015,91.089c0.007-0.002,0.014-0.006,0.021-0.009c-0.147-0.11-0.294-0.221-0.441-0.331
	c-0.273-0.095-0.544-0.085-0.811,0.029C215.149,91.062,215.562,91.167,216.015,91.089z"/>
<rect x="214.755" y="97.738" fill="#353535" width="0.001" height="0.117"/>
<path fill="#272727" d="M207.771,87.759c1.765-0.381,3.085,2.216,4.992,0.719c-3.206-4.528-3.206-4.528-5.54-0.652l0.259-0.157
	L207.771,87.759z"/>
<path fill="#181818" d="M201.742,84.99c0.008,1.666-1.752,3.002-0.897,4.827c0.449-1.736,4.209-2.233,1.875-5.011
	c-0.322,0.003-0.645,0.008-0.967,0.012C201.751,84.876,201.74,84.932,201.742,84.99z"/>
<path fill="#181818" d="M201.742,84.99c-0.002-0.059,0.009-0.114,0.011-0.172c-0.225,0.002-0.448,0.005-0.673,0.008
	c-0.495,1.644-2.44,3.22-0.235,4.991C199.99,87.992,201.75,86.656,201.742,84.99z"/>
<path fill="#232323" d="M237.932,144.737c0.315-0.341,0.631-0.681,0.946-1.021c-0.606-1.977,1.057-2.751,2.053-3.879
	c-0.351-0.295-0.701-0.59-1.052-0.885C237.158,140.184,234.958,141.59,237.932,144.737z"/>
<path fill="#060606" d="M239.879,138.953c0.482,0.138,0.827,0.439,1.052,0.885c2.574-0.584,5.118-1.558,7.812-0.614
	c0.021-0.432,0.044-0.864,0.065-1.296C245.714,137.247,242.709,137.339,239.879,138.953z"/>
<path fill="#060606" d="M239.879,138.953c0.351,0.295,0.701,0.59,1.052,0.885C240.706,139.393,240.361,139.091,239.879,138.953z"/>
<path fill="#2A2A2A" d="M209.541,79.795c-2.487,0.81-3.938,2.678-5.102,4.839C207.025,83.926,208.385,81.964,209.541,79.795z"/>
<path fill="#4F4F4F" d="M238.75,126.93c-1.631-0.094-3.291,0.026-4.852-0.609c-0.026,0.737-0.469,1.024-1.449,0.726
	C234.576,128.42,236.678,128.447,238.75,126.93z"/>
<path fill="#4F4F4F" d="M233.898,126.321c1.561,0.635,3.221,0.515,4.852,0.609c-1.42-1.262-3.326-0.512-4.891-1.181
	C233.896,125.965,233.905,126.151,233.898,126.321z"/>
<path fill="#4F4F4F" d="M233.898,126.321c-0.072-0.029-0.145-0.052-0.217-0.084c-0.061-0.06-0.106-0.116-0.162-0.175
	c-0.356,0.328-0.713,0.657-1.07,0.985C233.43,127.345,233.872,127.058,233.898,126.321z"/>
<path fill="#4F4F4F" d="M233.859,125.749c-0.113,0.104-0.227,0.208-0.34,0.312c0.056,0.059,0.102,0.115,0.162,0.175
	c0.072,0.033,0.145,0.055,0.217,0.084C233.905,126.151,233.896,125.965,233.859,125.749z"/>
<path fill="#181818" d="M191.765,71.622c-1.063,2.248-2.127,4.496-3.702,7.825c2.969-1.816,2.359-4.61,4.631-5.176
	C192.344,73.402,191.061,72.86,191.765,71.622z"/>
<path fill="#181818" d="M192.693,74.271c-0.31-0.884-0.619-1.767-0.929-2.649C191.061,72.86,192.344,73.402,192.693,74.271z"/>
<path fill="#1D1D1D" d="M245.514,161.225c0.1-0.209,0.201-0.297,0.305-0.297c-2.397-0.165-4.796-0.353-7.193-0.518
	c0.007,0.468,0.014,1.379,0.021,1.379c2.4,0,4.801,0,7.201,0C245.526,161.789,245.416,161.43,245.514,161.225z"/>
<path fill="#1D1D1D" d="M245.514,161.255c-0.098,0.205,0.013,0.404,0.333,0.596c-0.032-0.302-0.042-0.604-0.028-0.907
	C245.715,160.943,245.613,161.047,245.514,161.255z"/>
<path fill="#2D2D2D" d="M244.037,172.797c0.777-0.009,1.448,0.204,1.961,0.755c0.161,0.018,0.321,0.035,0.481,0.056
	c0.798,0.197,1.646-0.424,2.418,0.15c-1.777-1.478-3.912-2.192-6.073-2.852c0.463,0.441,0.652,1.05,0.97,1.577
	C243.869,172.602,243.951,172.704,244.037,172.797z"/>
<path fill="#2D2D2D" d="M246.479,173.607c-0.16-0.021-0.32-0.038-0.481-0.056c0.271,0.289,0.499,0.667,0.672,1.161
	c0.742-0.318,1.485-0.637,2.228-0.955C248.126,173.184,247.277,173.805,246.479,173.607z"/>
<path fill="#2D2D2D" d="M244.037,172.797c-0.086-0.093-0.168-0.195-0.243-0.313c-0.317-0.527-0.507-1.136-0.97-1.577
	c0.028,0.675,0.057,1.351,0.084,2.025C243.304,172.846,243.68,172.801,244.037,172.797z"/>
<path fill="#373737" d="M182.283,66.686c-0.478,2.02-0.85,3.597-1.223,5.173c0.316,0.39,0.633,0.78,0.949,1.17
	C182.963,71.119,184.564,69.244,182.283,66.686z"/>
<path fill="#3F3F3F" d="M240.92,130.618c0.256-0.175,0.44-0.408,0.553-0.702c-1.87-0.892-3.744-0.892-5.621-0.022
	c0.492,0.365,0.983,0.731,1.476,1.097C238.524,130.866,239.723,130.742,240.92,130.618z"/>
<path fill="#151515" d="M240.92,130.618c0.372,0.931-0.505,2.416,1.131,2.751c0.385,0.078,1.131-0.246,1.273-0.575
	c0.777-1.789-1.392-1.801-1.852-2.878C241.483,130.304,241.299,130.538,240.92,130.618z"/>
<path fill="#151515" d="M240.92,130.618c0.379-0.08,0.563-0.314,0.553-0.702C241.36,130.21,241.176,130.443,240.92,130.618z"/>
<path fill="#373737" d="M240.589,174.687c1.661-0.969,0.006-2.986,1.289-4.074c-0.612-0.342-1.226-0.684-1.838-1.025
	c-0.733,0.068-1.466,0.138-2.199,0.206C238.996,171.29,242.49,171.473,240.589,174.687z"/>
<path fill="#373737" d="M240.589,174.687c1.847-0.909,1.09-2.644,1.289-4.074C240.595,171.7,242.25,173.718,240.589,174.687z"/>
<path fill="#0A0A0A" d="M182.01,73.028c-0.652-0.117-0.701-0.724-0.949-1.17c-0.131,1.621-1.856,3.042-0.553,5.099
	C181.882,75.858,181.841,74.399,182.01,73.028z"/>
<path fill="#0A0A0A" d="M182.01,73.028c-0.316-0.39-0.633-0.78-0.949-1.17C181.309,72.305,181.357,72.911,182.01,73.028z"/>
<path fill="#8F8F8F" d="M242.465,167.997c-1.234-0.056-2.576,0.261-3.452-1.022c-1.52,0.471-1.316,1.656-1.172,2.818
	c0.686-0.577,1.412-0.717,2.199-0.206c0.666-1.237,2.037-0.36,2.912-0.972C242.704,168.455,242.548,168.246,242.465,167.997z"/>
<path fill="#8F8F8F" d="M242.465,167.997c0.083,0.249,0.239,0.458,0.487,0.618c-0.102-0.235-0.246-0.441-0.434-0.617
	C242.501,167.997,242.482,167.998,242.465,167.997z"/>
<path fill="#8F8F8F" d="M237.841,169.793c0.733-0.068,1.466-0.138,2.199-0.206C239.253,169.076,238.526,169.216,237.841,169.793z"/>
<path fill="#252525" d="M242.42,167.829c-0.014-0.078-0.026-0.157-0.026-0.243c0.017-0.634,0.261-1.229,0.311-1.856
	c-1.23,0.415-2.461,0.83-3.691,1.245C239.994,167.786,241.596,166.477,242.42,167.829z"/>
<path fill="#252525" d="M242.42,167.829c0.033,0.055,0.068,0.105,0.099,0.169c1.133-0.668,1.531-1.397,0.186-2.269
	c-0.05,0.628-0.294,1.223-0.311,1.856C242.394,167.672,242.406,167.751,242.42,167.829z"/>
<path fill="#252525" d="M242.465,167.997c-0.019-0.055-0.034-0.109-0.045-0.168c-0.824-1.353-2.426-0.043-3.407-0.854
	C239.889,168.258,241.23,167.941,242.465,167.997z"/>
<path fill="#252525" d="M242.465,167.997c0.018,0.001,0.036,0,0.054,0.001c-0.03-0.063-0.065-0.114-0.099-0.169
	C242.431,167.888,242.446,167.942,242.465,167.997z"/>
<path fill="#494949" d="M184.934,77.813c0.382-0.328,0.76-0.323,1.132,0.015c1.246-1.1,1.126-2.707,1.53-4.119
	c-0.298-0.367-0.595-0.735-0.893-1.104C185.522,74.141,185.247,75.983,184.934,77.813z"/>
<path fill="#494949" d="M184.934,77.813c0.378,0.005,0.755,0.01,1.132,0.015C185.693,77.49,185.315,77.485,184.934,77.813z"/>
<path fill="#434343" d="M235.171,120.289c1.198-0.631,2.458-1.103,3.744-1.506c-0.073-0.207-0.073-0.5-0.035-0.837
	c-1.562,0.265-3.169,0.446-4.01,2.094C235.009,120.118,235.104,120.202,235.171,120.289z"/>
<path fill="#434343" d="M235.254,120.68c-0.084,0.246-0.176,0.369-0.276,0.369c1.679-0.715,3.357-1.43,5.037-2.145
	c-0.669,0.317-0.98,0.212-1.1-0.122c-1.286,0.404-2.546,0.875-3.744,1.506C235.267,120.412,235.301,120.542,235.254,120.68z"/>
<path fill="#434343" d="M238.915,118.783c0.233-0.073,0.47-0.142,0.704-0.213c-0.247-0.208-0.493-0.417-0.739-0.625
	C238.842,118.283,238.842,118.576,238.915,118.783z"/>
<path fill="#434343" d="M240.015,118.904c-0.132-0.111-0.264-0.223-0.396-0.334c-0.234,0.071-0.471,0.14-0.704,0.213
	C239.034,119.117,239.346,119.222,240.015,118.904z"/>
<path fill="#434343" d="M235.171,120.289c-0.067-0.087-0.162-0.171-0.301-0.25c0.014,0.127,0.027,0.254,0.041,0.382
	C234.996,120.374,235.085,120.334,235.171,120.289z"/>
<path fill="#434343" d="M235.254,120.68c0.047-0.138,0.013-0.268-0.083-0.391c-0.086,0.045-0.175,0.084-0.26,0.132
	c0.021,0.209,0.044,0.418,0.066,0.628C235.078,121.049,235.17,120.926,235.254,120.68z"/>
<path fill="#333333" d="M202.72,84.807c-0.113-1.413,2.128-2.755,0.126-4.225c0.067,1.374-0.851,2.5-1.061,3.803
	C202.094,84.338,202.406,84.477,202.72,84.807z"/>
<path fill="#333333" d="M201.08,84.826c0.233-0.264,0.469-0.405,0.705-0.441c0.21-1.303,1.128-2.429,1.061-3.803
	C201.66,81.748,200.928,83.104,201.08,84.826z"/>
<path fill="#333333" d="M201.785,84.385c-0.023,0.142-0.028,0.287-0.032,0.434c0.322-0.004,0.645-0.008,0.967-0.012
	C202.406,84.477,202.094,84.338,201.785,84.385z"/>
<path fill="#333333" d="M201.785,84.385c-0.236,0.036-0.472,0.177-0.705,0.441c0.225-0.003,0.448-0.005,0.673-0.008
	C201.757,84.672,201.762,84.526,201.785,84.385z"/>
<path fill="#2B2B2B" d="M234.748,109.595c2.073-1.288,3.828-2.665,1.462-5.185c0.085,1.859-2.004,2.691-2.104,4.45
	C234.658,108.809,234.856,109.067,234.748,109.595z"/>
<path fill="#2B2B2B" d="M236.211,104.387c-0.002-0.003-0.004-0.006-0.006-0.009c-0.003,0.012-0.008,0.026-0.004,0.021
	c0.003,0.003,0.006,0.007,0.009,0.01c0-0.01,0.001-0.02,0.002-0.029L236.211,104.387z"/>
<path fill="#2B2B2B" d="M236.212,104.38c0.002-0.013,0.004-0.026,0.003-0.041c0.004-0.007-0.004,0.018-0.01,0.038
	c0.002,0.003,0.004,0.006,0.006,0.009L236.212,104.38z"/>
<path fill="#2B2B2B" d="M234.106,108.859c0.232,0.229,0.446,0.474,0.642,0.735C234.856,109.067,234.658,108.809,234.106,108.859z"/>
<path fill="#343434" d="M236.788,112.6c1.209-0.62,3.032-0.026,4.167-2.107c-2.203,0.036-3.894-0.265-5.201,1.251
	C236.812,111.168,236.884,111.782,236.788,112.6z"/>
<path fill="#343434" d="M235.754,111.743c0.345,0.286,0.689,0.571,1.034,0.856C236.884,111.782,236.812,111.168,235.754,111.743z"/>
<path fill="#2E2E2E" d="M221.429,110.601c2.229-0.892,3.461-1.476,3.684-3.729C223.384,107.497,222.043,107.841,221.429,110.601z"/>
<path fill="#393939" d="M226.106,115.535c-0.095,0.193,0.546,1.065,0.737,1.03c1.439-0.264,2.647-0.882,2.902-3.265
	C228.089,114.067,226.725,114.271,226.106,115.535z"/>
<path fill="#272727" d="M219.662,90.143c-0.146-0.065-0.282-0.099-0.419-0.131c-0.745,0.493-1.49,0.986-2.234,1.479
	c0.045,0.058,0.095,0.108,0.136,0.172c0.137,0.434,0.042,0.8-0.319,1.088c2.074,0.016,3.387-0.986,3.967-2.967
	C220.485,90.121,220.109,90.238,219.662,90.143z"/>
<path fill="#272727" d="M219.243,90.012c0.137,0.032,0.273,0.066,0.419,0.131c0.447,0.096,0.823-0.021,1.13-0.358
	c-0.381-0.014-0.763-0.027-1.144-0.041C219.514,89.833,219.378,89.922,219.243,90.012z"/>
<path fill="#272727" d="M217.145,91.663c-0.041-0.064-0.091-0.114-0.136-0.172c-0.075,0.05-0.151,0.1-0.227,0.15
	c0.015,0.37,0.028,0.74,0.043,1.11C217.187,92.463,217.281,92.097,217.145,91.663z"/>
<path fill="#454545" d="M197.2,84.285c0.009-0.019,0.019-0.037,0.026-0.056c-0.155-0.182-0.311-0.363-0.467-0.545
	c-0.381,0.361-0.762,0.724-1.144,1.085C196.387,85.429,196.823,84.973,197.2,84.285z"/>
<path fill="#454545" d="M195.365,87.52c1.971,0.611,1.523-1.815,2.27-2.814c-0.136-0.158-0.271-0.317-0.408-0.476
	c-0.008,0.019-0.018,0.037-0.026,0.056c-0.377,0.688-0.813,1.144-1.584,0.484C195.644,85.74,193.789,87.031,195.365,87.52z"/>
<path fill="#070707" d="M198.831,80.703c-1.326,0.552-2.158,1.447-2.071,2.981c0.218,0.099,0.396,0.231,0.54,0.394
	C197.826,82.952,198.46,81.887,198.831,80.703z"/>
<path fill="#070707" d="M197.635,84.705c0.437-1.322,2.112-2.275,1.196-4.002c-0.371,1.184-1.005,2.249-1.531,3.375
	C197.453,84.251,197.566,84.459,197.635,84.705z"/>
<path fill="#070707" d="M197.3,84.078c-0.144-0.163-0.322-0.295-0.54-0.394c0.156,0.182,0.312,0.363,0.467,0.545
	C197.25,84.178,197.276,84.129,197.3,84.078z"/>
<path fill="#070707" d="M197.3,84.078c-0.023,0.051-0.05,0.1-0.073,0.151c0.137,0.158,0.272,0.317,0.408,0.476
	C197.566,84.459,197.453,84.251,197.3,84.078z"/>
<path fill="#292929" d="M248.742,139.224c2.029,0.621-0.467,2.868,1.606,4.05c0.674-2.441,2.066-4.521-1.541-5.346
	C249.23,138.382,249.209,138.813,248.742,139.224z"/>
<path fill="#292929" d="M248.808,137.928c-0.021,0.432-0.044,0.864-0.065,1.296C249.209,138.813,249.23,138.382,248.808,137.928z"/>
<path fill="#282828" d="M203.435,77.921c0.062,0.657-0.117,1.259-0.576,1.799c2.893,0.177,1.908-2.6,2.931-3.848
	C204.643,76.051,204.539,77.685,203.435,77.921z"/>
<path fill="#282828" d="M203.435,77.921c-0.153,0.033-0.325,0.041-0.522,0.012c-0.018,0.596-0.036,1.191-0.054,1.787
	C203.317,79.181,203.497,78.578,203.435,77.921z"/>
<path fill="#282828" d="M203.349,77.44c0.006,0.01,0.013,0.019,0.019,0.029c0.04,0.154,0.054,0.303,0.067,0.452
	c1.104-0.237,1.208-1.87,2.354-2.048C203.886,74.873,203.859,76.495,203.349,77.44z"/>
<path fill="#282828" d="M203.367,77.47c-0.006-0.011-0.013-0.019-0.019-0.029c-0.113,0.209-0.25,0.386-0.437,0.493
	c0.197,0.029,0.369,0.021,0.522-0.012C203.421,77.773,203.407,77.624,203.367,77.47z"/>
<path fill="#555555" d="M199.479,72.787c-0.008-0.234-1.01-0.704-1.076-0.631c-0.871,0.955-1.475,2.022-0.676,3.471
	C199.064,75.092,199.518,74.042,199.479,72.787z"/>
<path fill="#222222" d="M209.477,96.881c2.069,0,2.355-1.628,3.877-3.916C210.529,94.056,209.348,94.788,209.477,96.881z"/>
<path fill="#505050" d="M227.571,96.656c0.23,0.158,0.27,0.53,0.214,1.007c0.682-0.551,1.961-0.613,1.832-1.832
	c-0.101-0.941-0.894-1.176-1.771-1.037C228.201,95.581,227.991,96.157,227.571,96.656z"/>
<path fill="#505050" d="M227.571,96.656c0.42-0.499,0.63-1.075,0.274-1.862c-0.377,0.637-0.754,1.274-1.131,1.911
	C227.137,96.537,227.403,96.541,227.571,96.656z"/>
<path fill="#505050" d="M227.571,96.656c-0.127,0.15-0.27,0.295-0.426,0.435c0.213,0.191,0.426,0.382,0.64,0.573
	C227.841,97.186,227.802,96.813,227.571,96.656z"/>
<path fill="#505050" d="M227.571,96.656c-0.168-0.115-0.435-0.119-0.856,0.049c0.144,0.128,0.287,0.257,0.431,0.385
	C227.302,96.951,227.444,96.806,227.571,96.656z"/>
<path fill="#1C1C1C" d="M187.847,70.062c-1.527-0.571-0.768,1.628-1.144,2.544c0.62,0.106,0.664,0.68,0.893,1.104
	C187.306,72.404,189.759,70.777,187.847,70.062z"/>
<path fill="#1C1C1C" d="M186.703,72.605c0.298,0.368,0.595,0.736,0.893,1.104C187.367,73.285,187.323,72.712,186.703,72.605z"/>
<path fill="#464646" d="M235.852,129.894c-1.064,0.124-2.82,0.242-2.022,1.626c0.927,1.606,2.354,0.05,3.498-0.529
	C236.312,131.33,235.78,131.017,235.852,129.894z"/>
<path fill="#464646" d="M237.327,130.99c-0.492-0.365-0.983-0.731-1.476-1.097C235.78,131.017,236.312,131.33,237.327,130.99z"/>
<path fill="#444444" d="M237.932,144.737c1.031,1.325,2.265,1.603,4.077,0.62c-1.2-0.629-2.166-1.135-3.131-1.641
	C239.192,144.641,238.926,145.025,237.932,144.737z"/>
<path fill="#444444" d="M238.878,143.717c-0.315,0.34-0.631,0.68-0.946,1.021C238.926,145.025,239.192,144.641,238.878,143.717z"/>
<path fill="#494949" d="M239.824,155.626c1.851,0.137,3.689,0.169,5.434-0.615C243.49,155.596,241.573,154.866,239.824,155.626z"/>
<path fill="#494949" d="M239.824,155.404c1.749-0.76,3.666,0.385,5.434-0.615c0.001,0,0.001,0,0.002,0
	C243.399,154.789,241.493,153.938,239.824,155.404z"/>
<path fill="#262626" d="M85.808,118.927c-1.773,1.48-2.694,0.926-2.944-1.232c-0.137-0.589-0.458-0.839-1.059-0.572
	c0.012,0.218,0.022,0.437,0.034,0.654c-2.182,2.094-4.925,0.596-7.348,1.146c-0.566,0.128-1.405-0.296-1.62,0.537
	c-0.203,0.784-0.1,1.686,0.72,2.116c0.993,0.521,2.07,0.88,3.111,1.31c0.335-0.267,0.67-0.534,1.005-0.801
	c-0.259-0.193-0.528-0.375-0.77-0.587c-0.063-0.056-0.043-0.206-0.061-0.312c3.034-0.163,6.069-0.308,9.101-0.505
	c0.657-0.042,1.888,0.192,1.075-1.171C86.858,119.183,86.234,119.114,85.808,118.927z"/>
<path fill="#1B1B1B" d="M74.872,169.78c-1.699,0.725-3.51,0.94-5.303,0.78c-1.624-0.144-3.467-0.327-4.1-2.229
	c-0.572-1.721,0.626-2.762,1.866-3.676c0.076-0.052,0.154-0.088,0.23-0.136c-0.237-0.191-0.474-0.383-0.71-0.575
	c-3.118,1.496-4.646,3.705-1.166,6.019C68.458,171.803,71.871,172.531,74.872,169.78z"/>
<path fill="#1B1B1B" d="M66.32,168.06c-0.684-1.585,0.967-2.201,1.645-3.216c-0.133-0.107-0.266-0.215-0.398-0.323
	c-0.076,0.048-0.155,0.084-0.23,0.136c-1.24,0.914-2.438,1.955-1.866,3.676c0.633,1.901,2.476,2.085,4.1,2.229
	c1.793,0.16,3.604-0.056,5.303-0.78c-1.62,0.026-3.24,0.06-4.86,0.078C68.48,169.876,66.989,169.608,66.32,168.06z"/>
<path fill="#181818" d="M69.629,152.431c-0.006-0.084,0.144-0.258,0.223-0.259c2.99-0.013,5.979,0.006,8.969,0.006
	c-0.009-0.469-0.018-1.389-0.026-1.389c-4.931,0-9.862,0-15.706,0c2.313,2,4.461,2.848,6.712,3.131
	c0.003-0.338,0.005-0.684,0.008-1.022C69.743,152.745,69.641,152.587,69.629,152.431z"/>
<path fill="#232323" d="M117.928,71.591c0.912,2.131,1.55,3.622,2.188,5.114c0.406,0.024,0.813,0.052,1.226,0.079
	c0.001,0.001,0.001,0.005,0.002,0.005c0,0,0.001,0,0.001,0c1.594-2,2.219,1.478,3.607,0.633c0.092-0.16,0.206-0.304,0.341-0.429
	C123.841,74.1,121.649,72.285,117.928,71.591z"/>
<path fill="#454545" d="M69.167,156.96c-1.429,0.51-2.856,1.02-4.285,1.53c4.552,0.386,9.104,0.772,13.655,1.159
	c-1.506-2.57-3.766-1.532-5.629-2.088C71.615,157.648,70.262,158.109,69.167,156.96z"/>
<path fill="#2C2C2C" d="M95.651,98.705L95.651,98.705c-0.801,0.069-0.815-0.306-1.815-0.988c0,0,0-0.001,0-0.001
	c-1,0.072-1.656,0.144-2.536,0.215c1.323,2.399,2.654,4.833,5.149,6.909c0.1-1.709-0.683-2.982,0.324-4.045
	C95.861,100.386,95.747,99.542,95.651,98.705z"/>
<path fill="#343434" d="M88.833,109.799c0.005,0.327,0.007,0.653,0.006,0.98c1.565,1.74,3.528,1.777,5.17,0.527
	c1.636-1.245,1.493-3.023-0.722-5.929C94.323,111.195,91.046,109.588,88.833,109.799z"/>
<path fill="#1C1C1C" d="M75.846,169.785c2.188-0.135,3.307-1.451,3.101-3.482c-0.23-2.278-2.044-3.077-4.112-3.341
	c-0.012,0.166-0.023,0.332-0.035,0.498C78.493,164.947,78.346,167.148,75.846,169.785z"/>
<path fill="#1C1C1C" d="M74.799,163.46c-0.012,0.177-0.024,0.354-0.037,0.532c3.112,1.417,1.303,3.754,1.084,5.793
	C78.346,167.148,78.493,164.947,74.799,163.46z"/>
<path fill="#1B1B1B" d="M125.295,76.991C125.295,76.991,125.295,76.992,125.295,76.991
	C125.295,76.992,125.295,76.992,125.295,76.991c-0.114,0.143-0.228,0.285-0.342,0.428c1.003,2.064,2.738,3.18,5.738,4.717
	C129.104,78.94,130.317,74.593,125.295,76.991z"/>
<path fill="#1B1B1B" d="M125.294,76.992c-0.135,0.125-0.25,0.267-0.341,0.427C125.067,77.276,125.181,77.134,125.294,76.992
	C125.295,76.992,125.295,76.992,125.294,76.992z"/>
<path fill="#333333" d="M86.676,101.513c-1.5-1.69-2.715-1.515-3.955-0.274c-1.374,1.374-1.297,2.715,0.863,5.658
	C83.183,103.235,84.501,101.975,86.676,101.513z"/>
<path fill="#242424" d="M118.334,86.685c-2.086,2.688-3.89,1.91-5.562-0.453c1.194,3.552,2.966,5.216,6.252,1.906
	c-0.217-0.512-0.436-1.024-0.653-1.536C118.357,86.629,118.348,86.657,118.334,86.685z"/>
<path fill="#242424" d="M118.334,86.685c0.014-0.028,0.023-0.056,0.036-0.083c-0.103-0.242-0.206-0.484-0.309-0.727
	c-1.554,3.228-3.475,1.019-5.29,0.356C114.444,88.595,116.248,89.373,118.334,86.685z"/>
<path fill="#1E1E1E" d="M110.173,78.254c2.917-3.158,4.421,0.617,6.549,1.336c-1.605-2.619-3.217-5.225-6.859-2.734
	c0.025,0.503,0.049,1.008,0.307,1.409C110.17,78.261,110.171,78.257,110.173,78.254z"/>
<path fill="#1E1E1E" d="M110.173,78.254c-0.001,0.003-0.002,0.007-0.004,0.01c0.118,0.183,0.279,0.347,0.521,0.475
	c2.372-2.273,3.915,1.321,6.032,0.851C114.594,78.871,113.09,75.096,110.173,78.254z"/>
<path fill="#191919" d="M97.761,85.977c-1.769,0.808-3.445,1.769-3.992,3.854c-0.036,0.137,0.07,0.312,0.11,0.47
	c1.305-1.485,5.108-0.144,4.808-3.491C98.658,86.489,97.923,85.902,97.761,85.977z"/>
<path fill="#2E2E2E" d="M93.274,97.107c0.246,0.039,0.482,0.101,0.71,0.179c-0.059-0.449-0.118-0.897-0.178-1.345
	c-1.508-0.749-2.749-2.153-4.773-2.005c0.207,1.785,1.277,2.896,2.37,3.994C91.85,97.253,92.521,97.091,93.274,97.107z"/>
<path fill="#2E2E2E" d="M93.985,97.286c-0.229-0.078-0.464-0.14-0.71-0.179c-0.753-0.017-1.425,0.146-1.871,0.823
	c0.879-0.071,1.759-0.144,2.639-0.215C94.023,97.572,94.004,97.429,93.985,97.286z"/>
<path fill="#343433" d="M68.927,137.479c-0.985-0.1-2.256-1.805-2.863-0.167c-0.643,1.734,0.746,2.584,2.487,2.606
	c1.413-0.642,2.826-1.282,4.239-1.924C71.503,137.818,70.219,137.61,68.927,137.479z"/>
<path fill="#383838" d="M73.902,139.596c0.16-0.134,0.349-0.201,0.55-0.242c0.529-0.233,1.057-0.465,1.586-0.698
	c-0.975-0.752-2.087-0.826-3.248-0.661c-0.778,2.041-2.458,2.095-4.239,1.924c0.546,0.994,2.693,0.796,2.016,2.703
	c0.403,0.118,0.807,0.236,1.209,0.354c0,0.01,0.001,0.02,0.002,0.029c0,0,0.001,0,0.001,0c-0.001-0.01,0-0.021-0.002-0.031
	c0.026-0.749,0.053-1.5,0.08-2.251C72.054,139.467,73.212,139.956,73.902,139.596z"/>
<path fill="#383838" d="M72.79,137.994c-1.413,0.642-2.826,1.282-4.239,1.924C70.332,140.089,72.012,140.035,72.79,137.994z"/>
<path fill="#3E3E3E" d="M70.305,156.531c0.865-0.182,1.729-0.364,2.594-0.546c1.371-0.373,2.247-0.959,0.426-1.917
	c-1.08-0.568-2.338-0.798-3.517-1.18c0.302,0.228,0.401,0.454,0.299,0.679s-0.204,0.336-0.307,0.336
	c-0.452,0.554-0.904,1.107-1.356,1.661c0.385,0.299,0.769,0.598,1.153,0.896C69.836,156.473,70.071,156.497,70.305,156.531z"/>
<path fill="#3E3E3E" d="M70.106,153.567c0.103-0.225,0.003-0.451-0.299-0.679c-0.003,0.339-0.005,0.677-0.008,1.015
	C69.902,153.903,70.004,153.792,70.106,153.567z"/>
<path fill="#3E3E3E" d="M70.305,156.531c-0.233-0.034-0.469-0.059-0.708-0.07c0.074,0.058,0.148,0.115,0.222,0.173
	C69.98,156.6,70.143,156.565,70.305,156.531z"/>
<path fill="#1C1C1C" d="M70.566,142.621c-1.122,0.024-2.246,0.016-3.365,0.081c-1.103,0.063-2.662,0.012-2.39,1.573
	c0.289,1.657,1.897,0.22,2.813,0.656c1.081-0.396,1.938-1.451,3.269-1.114l0.485,0.012l0.443-0.196
	c-0.015-0.209-0.03-0.419-0.045-0.628C71.303,143.185,70.896,143.069,70.566,142.621z"/>
<path fill="#1C1C1C" d="M71.777,143.005c0-0.01-0.001-0.02-0.002-0.029c-0.402-0.118-0.806-0.236-1.209-0.354
	C70.896,143.069,71.303,143.185,71.777,143.005z"/>
<path fill="#1A1A1A" d="M74.449,163.385c0.009-0.034,0.013-0.069,0.032-0.103c0.12-0.214,0.237-0.32,0.353-0.32
	c-2.771-0.571-5.479-0.64-7.978,0.983c0.303,0.148,0.656,0.234,0.886,0.472C69.825,163.187,72.119,163.182,74.449,163.385z"/>
<path fill="#1A1A1A" d="M67.965,164.844c2.227-0.595,4.444-1.262,6.797-0.852c-0.265-0.214-0.363-0.416-0.312-0.607
	c-2.33-0.203-4.624-0.198-6.707,1.032C67.846,164.523,67.931,164.651,67.965,164.844z"/>
<path fill="#1A1A1A" d="M67.743,164.417c-0.23-0.237-0.583-0.323-0.886-0.472c0.236,0.192,0.473,0.384,0.71,0.575
	C67.625,164.484,67.684,164.452,67.743,164.417z"/>
<path fill="#1A1A1A" d="M67.743,164.417c-0.059,0.035-0.118,0.067-0.176,0.104c0.133,0.108,0.266,0.216,0.398,0.323
	C67.931,164.651,67.846,164.523,67.743,164.417z"/>
<path fill="#1A1A1A" d="M74.481,163.282c-0.019,0.033-0.023,0.068-0.032,0.103c0.071,0.006,0.142,0.01,0.213,0.017
	c0.049,0.019,0.089,0.039,0.137,0.059c0.012-0.166,0.023-0.332,0.035-0.498C74.719,162.962,74.602,163.068,74.481,163.282z"/>
<path fill="#1A1A1A" d="M74.762,163.992c0.013-0.178,0.025-0.355,0.037-0.532c-0.047-0.02-0.088-0.04-0.137-0.059
	c-0.071-0.007-0.142-0.011-0.213-0.017C74.398,163.576,74.497,163.778,74.762,163.992z"/>
<path fill="#323232" d="M68.857,156.445c0.091-0.004,0.178,0.007,0.268,0.006c-0.271-0.255-0.514-0.535-0.682-0.887
	c-1.36,0.319-2.858,0.386-4.043,1.028c-1.222,0.663-1.175,1.633,0.481,1.897C65.361,156.163,67.43,156.93,68.857,156.445z"/>
<path fill="#323232" d="M69.59,156.849c-0.16-0.127-0.316-0.259-0.464-0.397c-0.09,0.001-0.177-0.01-0.268-0.006
	c-1.428,0.484-3.496-0.282-3.976,2.045c1.429-0.511,2.856-1.021,4.285-1.53C69.333,156.973,69.469,156.926,69.59,156.849z"/>
<path fill="#323232" d="M69.125,156.451c0.159-0.002,0.315,0.003,0.471,0.01c-0.384-0.299-0.769-0.598-1.153-0.896
	C68.611,155.916,68.854,156.196,69.125,156.451z"/>
<path fill="#323232" d="M69.818,156.634c-0.074-0.058-0.148-0.115-0.222-0.173c-0.156-0.007-0.312-0.012-0.471-0.01
	c0.148,0.139,0.304,0.271,0.464,0.397C69.675,156.795,69.756,156.732,69.818,156.634z"/>
<path fill="#2C2C2C" d="M71.954,142.941c-0.061,0.032-0.117,0.041-0.176,0.063c0.025,0.208,0.04,0.418,0.044,0.628
	c1.279-0.096,2.768,0.569,3.875-1.158c-1.365-0.622-2.603-1.188-3.841-1.752C72.432,141.438,72.426,142.18,71.954,142.941z"/>
<path fill="#2C2C2C" d="M71.778,143.004c0.059-0.022,0.115-0.031,0.176-0.063c0.472-0.762,0.478-1.503-0.098-2.219
	c-0.027,0.751-0.054,1.502-0.08,2.251C71.778,142.984,71.777,142.994,71.778,143.004z"/>
<path fill="#3D3D3D" d="M68.068,175.872c-2.604,1.506-4.342,3.09-0.432,5.214c0.065-0.426,0.131-0.853,0.195-1.278
	C67.12,178.437,68.309,177.213,68.068,175.872z"/>
<path fill="#464646" d="M67.625,144.932c1.935,1.092,4.067,1.484,6.233,1.754c0.013-0.375,0.025-0.75,0.038-1.126
	c-0.59-1.288-2.584-0.158-3.003-1.742C69.954,144.628,69.005,145.412,67.625,144.932z"/>
<path fill="#464646" d="M67.625,144.932c1.38,0.48,2.329-0.304,3.269-1.114C69.562,143.48,68.706,144.536,67.625,144.932z"/>
<path fill="#010101" d="M78.271,109.646c2.112,2.435,4.12,3.653,6.549,4.193c0.004-0.23,0.008-0.461,0.012-0.692
	C83.13,111.547,81.345,110.115,78.271,109.646z"/>
<path fill="#3D3D3D" d="M102.937,82.3c0.724,1.712,1.283,3.511,3.188,4.382c0.148-0.085,0.297-0.169,0.445-0.254
	C106.488,84.122,105.109,82.901,102.937,82.3z"/>
<path fill="#424242" d="M118.6,85.945c1.184,0.288,0.495,1.371,0.424,2.192c1.898-2.676,0.153-4.875-0.938-7.159
	C117.77,82.654,118.961,84.264,118.6,85.945z"/>
<path fill="#424242" d="M118.062,85.875c0.214,0.009,0.389,0.034,0.538,0.07c0.361-1.681-0.83-3.292-0.514-4.967
	C116.812,82.604,118.15,84.243,118.062,85.875z"/>
<path fill="#424242" d="M118.6,85.945c-0.047,0.217-0.124,0.436-0.229,0.656c0.218,0.512,0.436,1.024,0.653,1.536
	C119.095,87.316,119.783,86.233,118.6,85.945z"/>
<path fill="#424242" d="M118.37,86.602c0.105-0.22,0.183-0.439,0.229-0.656c-0.149-0.036-0.324-0.062-0.538-0.07
	C118.165,86.117,118.268,86.359,118.37,86.602z"/>
<path fill="#323233" d="M110.015,78.666c-0.933-0.216-0.725-0.933-0.152-1.811c-1.979,2.726-1.711,5.134,1.013,7.196
	C109.923,82.338,109.292,80.585,110.015,78.666z"/>
<path fill="#323233" d="M110.689,78.739c-0.279,0-0.491-0.031-0.675-0.073c-0.722,1.919-0.091,3.672,0.86,5.386
	C111.156,82.27,109.765,80.545,110.689,78.739z"/>
<path fill="#323233" d="M110.015,78.666c0.051-0.134,0.09-0.267,0.154-0.402c-0.258-0.401-0.282-0.905-0.307-1.409
	C109.29,77.733,109.082,78.45,110.015,78.666z"/>
<path fill="#323233" d="M110.169,78.264c-0.064,0.135-0.104,0.268-0.154,0.402c0.184,0.042,0.396,0.073,0.675,0.073
	C110.448,78.611,110.287,78.447,110.169,78.264z"/>
<path fill="#2F2F2F" d="M72.786,180.602c0.01,0.361,0.019,0.723,0.028,1.084c1.989,0.145,3.74-0.407,5.206-1.787
	c-0.374-0.311-0.748-0.622-1.122-0.933C75.527,179.511,74.157,180.057,72.786,180.602z"/>
<path fill="#404040" d="M106.57,86.428c-0.106,0.151-0.255,0.236-0.445,0.254c0.269,1.916,1.419,3.146,3.092,3.969l0.339-0.173
	C109.594,88.366,108.523,87.072,106.57,86.428z"/>
<path fill="#030303" d="M78.653,176.038c0.046,1.354-0.89,2.119-1.755,2.928c0.459,0.209,1.02,0.295,1.122,0.933
	c2.138-1.159,3.746-2.49,1.644-5.033C79.327,175.256,78.99,175.646,78.653,176.038z"/>
<path fill="#030303" d="M76.898,178.966c0.374,0.311,0.748,0.622,1.122,0.933C77.918,179.261,77.357,179.175,76.898,178.966z"/>
<path fill="#353535" d="M88.58,110.127c0.084-0.219,0.168-0.328,0.253-0.328c-1.432-1.229-2.594-2.983-5.356-2.774
	c1.685,1.998,3.094,3.479,5.362,3.755C88.583,110.562,88.496,110.346,88.58,110.127z"/>
<path fill="#353535" d="M88.58,110.127c-0.084,0.219,0.003,0.436,0.259,0.652c0.001-0.327-0.001-0.653-0.006-0.98
	C88.748,109.799,88.664,109.908,88.58,110.127z"/>
<path fill="#1D1D1D" d="M80.287,131.059c0.004,0.007-0.184,0.014-0.181,0.022c0.012-0.005-0.27,0.015-0.27,0.013
	c0-0.001,0-0.002,0-0.003c0,0.002,0.187,0.003,0.183,0.005l0.173-0.01c2.238,0.958-2.265,2.945,0.542,3.605
	c1.162,0.273,2.166-0.767,2.216-2.088C83.033,130.412,81.96,130.156,80.287,131.059z"/>
<path fill="#525252" d="M76.828,127.839c-1.362-1.558-3.02-1.566-4.785-1.162c1.454,1.229,2.974,2.079,4.84,1.93
	C76.975,128.343,76.956,128.087,76.828,127.839z"/>
<path fill="#616161" d="M126.166,72.677c0.714-1.505,0.094-2.594-0.703-3.586c-0.087-0.107-1.105,0.22-1.143,0.438
	C124.087,70.909,124.656,71.933,126.166,72.677z"/>
<path fill="#1D1D1D" d="M85.469,125.845c-2.105-0.955-3.35-1.52-4.593-2.083c-0.321,0.289-0.643,0.579-0.964,0.869
	C81.387,125.158,82.64,126.556,85.469,125.845z"/>
<path fill="#505050" d="M124.273,85.063c0.487-2.405-0.562-3.819-1.473-5.272c-0.396,0.022-0.793,0.045-1.188,0.068
	C122.023,81.651,122.327,83.501,124.273,85.063z"/>
<path fill="#0A0A0A" d="M74.452,139.354c-0.183,0.081-0.367,0.162-0.55,0.242c1.393,0.323,2.8,0.596,4.172,0.991
	c0.694,0.199,1.389,0.242,1.638-0.416c0.396-1.047-0.361-1.38-1.263-1.427c-0.803-0.043-1.607-0.061-2.411-0.089
	C75.704,139.33,75.031,139.234,74.452,139.354z"/>
<path fill="#0A0A0A" d="M76.038,138.655c-0.529,0.233-1.057,0.465-1.586,0.698C75.031,139.234,75.704,139.33,76.038,138.655z"/>
<path fill="#1F1F1F" d="M100.389,91.694c0.763,1.944,1.624,3.779,5.161,4.971C103.584,93.989,102.593,92.303,100.389,91.694z"/>
<path fill="#222222" d="M74.192,146.321c-0.113,0.243-0.225,0.364-0.334,0.364c1.52-0.059,3.02,1.879,4.91,0.188
	c-1.661-1.302-3.326-1.078-4.872-1.313C74.21,145.821,74.309,146.074,74.192,146.321z"/>
<path fill="#222222" d="M74.192,146.321c0.116-0.247,0.018-0.5-0.296-0.762c-0.013,0.376-0.025,0.751-0.038,1.126
	C73.968,146.686,74.079,146.564,74.192,146.321z"/>
<path fill="#111111" d="M81.805,117.122c-1.432-0.867-2.703-2.188-4.869-1.829c1.489,1.562,3.021,2.38,4.903,2.483
	C81.706,117.564,81.695,117.347,81.805,117.122z"/>
<path fill="#161616" d="M96.869,97.768c-0.277,0.234-0.556,0.468-0.834,0.701c0.602,0.645,0.82,1.442,0.816,2.326
	c0.628-0.175,1.256-0.351,1.885-0.526c0.029-0.473,0.059-0.946,0.088-1.419C98.172,98.488,97.521,98.128,96.869,97.768z"/>
<path fill="#161616" d="M95.754,98.705c0.096,0.837,0.184,1.681,1.097,2.09c0.004-0.884-0.214-1.681-0.816-2.326
	C95.941,98.548,95.848,98.626,95.754,98.705z"/>
<path fill="#424242" d="M109.556,90.478l-0.339,0.173c-0.035,1.392,0.508,2.458,1.861,2.908c0.201,0.067,0.934-0.597,0.885-0.791
	C111.66,91.535,111.187,90.361,109.556,90.478z"/>
<path fill="#3C3C3C" d="M70.81,130.971c-0.466,0.352-0.933,0.703-1.399,1.055c1.487,0.544,2.974,1.088,4.46,1.631
	c0.401-0.34,0.803-0.68,1.204-1.021C73.653,132.081,72.231,131.525,70.81,130.971z"/>
<path fill="#3A3A3A" d="M79.664,174.865c-1.207-1.534-2.594-2.03-4.718-0.965c1.515,0.873,2.61,1.506,3.707,2.138
	C78.315,175.065,78.699,174.715,79.664,174.865z"/>
<path fill="#3A3A3A" d="M78.653,176.038c0.337-0.392,0.674-0.782,1.011-1.173C78.699,174.715,78.315,175.065,78.653,176.038z"/>
<path fill="#555555" d="M120.116,76.705c0.42,1.088,0.413,2.38,1.496,3.154c0.376-0.361,0.771-0.4,1.188-0.068
	c-0.025-1.224-0.515-2.224-1.457-3.007C120.912,77.113,120.501,77.105,120.116,76.705z"/>
<path fill="#555555" d="M120.116,76.705c0.385,0.4,0.796,0.408,1.228,0.079c-0.001-0.001-0.001-0.002-0.002-0.003
	C120.93,76.755,120.522,76.729,120.116,76.705z"/>
<path fill="#555555" d="M121.612,79.859c0.396-0.023,0.792-0.046,1.188-0.068C122.384,79.459,121.988,79.498,121.612,79.859z"/>
<path fill="#4B4B4B" d="M94.201,97.375c0.542,0.213,1.049,0.506,1.546,0.822c0.046-0.534,0.32-0.797,1.122-0.43
	c-1.021-0.609-2.042-1.218-3.062-1.826C94.275,96.374,94.399,96.853,94.201,97.375z"/>
<path fill="#4B4B4B" d="M95.747,98.197c-0.497-0.316-1.004-0.609-1.546-0.822c-0.042,0.112-0.081,0.224-0.155,0.34
	c-0.001,0-0.003,0-0.004,0c0,0,0,0.001,0,0.001c0.366,0.683,0.911,1.058,1.712,0.988l0,0c0,0,0,0,0-0.001
	C95.736,98.517,95.734,98.348,95.747,98.197z"/>
<path fill="#4B4B4B" d="M94.201,97.375c0.198-0.522,0.075-1.001-0.394-1.434c0.06,0.447,0.119,0.896,0.178,1.345
	C94.059,97.311,94.128,97.347,94.201,97.375z"/>
<path fill="#4B4B4B" d="M94.201,97.375c-0.072-0.028-0.142-0.064-0.216-0.089c0.019,0.143,0.039,0.286,0.057,0.429
	c0.001,0,0.002,0,0.004,0C94.12,97.599,94.158,97.487,94.201,97.375z"/>
<path fill="#4B4B4B" d="M95.747,98.197c0.036,0.023,0.072,0.044,0.108,0.067c0.071,0.063,0.117,0.137,0.179,0.204
	c0.278-0.233,0.557-0.467,0.834-0.701C96.067,97.4,95.793,97.663,95.747,98.197z"/>
<path fill="#4B4B4B" d="M95.747,98.197c-0.013,0.151-0.011,0.32,0.007,0.507c0,0,0,0,0,0.001c0.094-0.079,0.188-0.157,0.281-0.236
	c-0.062-0.067-0.108-0.141-0.179-0.204C95.819,98.242,95.783,98.22,95.747,98.197z"/>
<path fill="#353535" d="M98.823,98.85c0.415,0.5,0.386,0.974-0.088,1.419c0.94,0.685,2.245,2.54,2.979,0.893
	C102.455,99.496,99.976,99.48,98.823,98.85z"/>
<path fill="#353535" d="M98.823,98.85c-0.029,0.473-0.059,0.946-0.088,1.419C99.209,99.823,99.238,99.35,98.823,98.85z"/>
<path fill="#0A0A0A" d="M72.47,180.972c0.103-0.246,0.208-0.37,0.316-0.37c-1.707,0.083-3.389,0.011-4.954-0.794
	c0.445,0.504,0.38,0.93-0.195,1.278c1.605,1.247,3.405,0.806,5.178,0.6C72.482,181.453,72.367,181.215,72.47,180.972z"/>
<path fill="#0A0A0A" d="M67.832,179.808c-0.064,0.426-0.13,0.853-0.195,1.278C68.212,180.737,68.277,180.312,67.832,179.808z"/>
<path fill="#0A0A0A" d="M72.47,180.972c-0.103,0.243,0.013,0.481,0.345,0.714c-0.01-0.361-0.019-0.723-0.028-1.084
	C72.678,180.602,72.572,180.726,72.47,180.972z"/>
<path fill="#1E1E1E" d="M75.074,132.636c-0.155,0.631-0.786,0.7-1.204,1.021c1.383,0.24,2.57,1.67,4.344,0.622
	C77.699,132.635,76.271,132.835,75.074,132.636z"/>
<path fill="#1E1E1E" d="M75.074,132.636c-0.401,0.341-0.803,0.681-1.204,1.021C74.288,133.336,74.919,133.267,75.074,132.636z"/>
<path fill="#282828" d="M76.828,127.839c0.354,0.146,0.48,0.308,0.38,0.487c-0.105,0.187-0.213,0.28-0.325,0.28
	c0.874,1.135,2.726,0.926,3.369,2.389C81.396,127.557,78.718,128.11,76.828,127.839z"/>
<path fill="#282828" d="M80.251,130.996c-0.011,0.033-0.018,0.061-0.029,0.095c0.022-0.012,0.042-0.019,0.064-0.031
	C80.275,131.038,80.262,131.019,80.251,130.996z"/>
<path fill="#282828" d="M80.299,131.081c-0.003-0.008-0.008-0.015-0.012-0.022c-0.022,0.012-0.042,0.019-0.064,0.031
	c0,0.001,0,0.002-0.001,0.003C80.212,131.096,80.311,131.076,80.299,131.081z"/>
<path fill="#282828" d="M77.208,128.326c0.101-0.18-0.025-0.341-0.38-0.487c0.128,0.248,0.146,0.504,0.055,0.768
	C76.995,128.606,77.103,128.513,77.208,128.326z"/>
<path fill="#555555" d="M76.702,122.885c0.799,1.081,2.024,1.378,3.21,1.746c-0.174-0.839-0.083-1.384,0.964-0.869
	c-1.057-0.56-2.113-1.119-3.169-1.678C77.839,122.937,77.657,123.396,76.702,122.885z"/>
<path fill="#555555" d="M77.707,122.084c-0.335,0.267-0.67,0.534-1.005,0.801C77.657,123.396,77.839,122.937,77.707,122.084z"/>
<path fill="#555555" d="M79.912,124.631c0.321-0.29,0.643-0.58,0.964-0.869C79.829,123.247,79.738,123.792,79.912,124.631z"/>
<path d="M84.831,113.146c-0.004,0.231-0.008,0.462-0.012,0.692c0.525,1.373,1.76,1.698,2.992,2.025
	c0.007-0.354,0.013-0.707,0.02-1.061C87.045,113.863,86.129,113.16,84.831,113.146z"/>
<path fill="#343434" d="M70.81,130.971c-0.956-0.146-1.922-1.771-2.794-0.437c-0.806,1.232,0.364,1.496,1.395,1.491
	C69.554,131.245,70.243,131.189,70.81,130.971z"/>
<path fill="#343434" d="M69.41,132.025c0.467-0.352,0.934-0.703,1.399-1.055C70.243,131.189,69.554,131.245,69.41,132.025z"/>
<path fill="#141414" d="M85.808,118.927c-0.981-0.41-1.963-0.821-2.944-1.232C83.653,118.563,84.473,119.361,85.808,118.927z"/>
<path fill="#141414" d="M85.808,118.927c-1.335,0.435-2.154-0.363-2.944-1.232C83.113,119.853,84.034,120.407,85.808,118.927z"/>
<path fill="#010101" d="M88.131,115.517c-0.107,0.231-0.213,0.348-0.319,0.348c0.583,0.448,1.167,0.896,1.75,1.344
	c0.264-0.375,0.526-0.75,0.79-1.125c-0.84-0.427-1.681-0.854-2.521-1.279C88.14,115.045,88.239,115.282,88.131,115.517z"/>
<path fill="#010101" d="M88.131,115.517c0.108-0.234,0.009-0.472-0.3-0.713c-0.007,0.354-0.013,0.707-0.02,1.061
	C87.918,115.864,88.023,115.748,88.131,115.517z"/>
<path fill="#767676" d="M130.723,241.853c0.083-0.224,0.239-0.431,0.412-0.633c-0.287-0.192-0.569-0.391-0.835-0.613
	c-0.004,0.001-0.008,0.004-0.012,0.005c-0.013,0.367-0.034,0.734-0.046,1.103C130.403,241.738,130.562,241.79,130.723,241.853z"/>
<path fill="#767676" d="M130.242,241.714c0.012-0.368,0.033-0.735,0.046-1.103c-0.732,0.228-1.253,0.63-1.223,1.489
	C129.464,241.732,129.855,241.654,130.242,241.714z"/>
<path fill="#767676" d="M130.723,241.853c-0.16-0.062-0.32-0.114-0.481-0.139c-0.008,0.233-0.018,0.467,0,0.701
	c0.015,0.031,0.03,0.062,0.045,0.095c0.168,0.056,0.337,0.112,0.506,0.169C130.627,242.368,130.631,242.1,130.723,241.853z"/>
<path fill="#767676" d="M130.241,242.415c-0.017-0.234-0.007-0.468,0-0.701c-0.387-0.06-0.778,0.019-1.177,0.387
	c0.407,0.136,0.814,0.272,1.222,0.409C130.271,242.478,130.256,242.446,130.241,242.415z"/>
<path fill="#767676" d="M130.723,241.853c0.228,0.089,0.456,0.201,0.684,0.312c0.01,0.005,0.015,0.013,0.024,0.019
	c0.179-0.14,0.357-0.278,0.536-0.417c-0.275-0.186-0.556-0.363-0.832-0.547C130.961,241.422,130.806,241.629,130.723,241.853z"/>
<path fill="#767676" d="M130.723,241.853c-0.092,0.247-0.095,0.516,0.07,0.826c0.213-0.165,0.425-0.33,0.638-0.495
	c-0.01-0.006-0.015-0.014-0.024-0.019C131.178,242.054,130.951,241.941,130.723,241.853z"/>
<path fill="#767676" d="M131.748,240.531c-0.177-0.414-0.544-0.556-1.448,0.075c0.266,0.223,0.548,0.421,0.835,0.613
	c0.006-0.007,0.011-0.014,0.017-0.021C131.354,240.98,131.55,240.755,131.748,240.531z"/>
<path fill="#767676" d="M131.151,241.199c-0.006,0.007-0.011,0.014-0.017,0.021c0.276,0.184,0.557,0.361,0.832,0.547
	c-0.055-0.437-0.082-0.915-0.219-1.235C131.55,240.755,131.354,240.98,131.151,241.199z"/>
</svg>
